<svg xmlns="http://www.w3.org/2000/svg" width="640" height="360" viewBox="0 0 640 360">
  <rect width="640" height="360" fill="#1A1A1A"/>
  <rect x="40" y="30" width="560" height="300" rx="8" fill="#222"/>
  <rect x="60" y="50" width="200" height="14" rx="4" fill="#333"/>
  <rect x="60" y="74" width="140" height="10" rx="3" fill="#2A2A2A"/>
  <rect x="60" y="100" width="520" height="1" fill="#2A2A2A"/>
  <rect x="60" y="120" width="360" height="10" rx="3" fill="#D97757" opacity="0.3"/>
  <rect x="60" y="140" width="300" height="10" rx="3" fill="#D97757" opacity="0.2"/>
  <rect x="60" y="160" width="400" height="10" rx="3" fill="#D97757" opacity="0.15"/>
  <rect x="60" y="190" width="240" height="32" rx="6" fill="#D97757" opacity="0.2"/>
  <rect x="60" y="240" width="520" height="60" rx="8" fill="#252525"/>
  <circle cx="90" cy="270" r="12" fill="#D97757" opacity="0.4"/>
  <rect x="112" y="262" width="160" height="8" rx="3" fill="#333"/>
  <rect x="112" y="278" width="100" height="6" rx="3" fill="#2A2A2A"/>
  <text x="320" y="340" text-anchor="middle" font-family="Inter, sans-serif" font-size="11" fill="#555">Interfaz de agente de IA</text>
</svg>
