<svg xmlns="http://www.w3.org/2000/svg" width="960" height="540" viewBox="0 0 960 540">
  <rect width="960" height="540" fill="#1A1A1A"/>
  <rect x="20" y="20" width="920" height="500" rx="10" fill="#151515"/>
  <!-- Terminal header -->
  <rect x="20" y="20" width="920" height="36" rx="10" fill="#222"/>
  <circle cx="44" cy="38" r="6" fill="#FF5F57"/>
  <circle cx="64" cy="38" r="6" fill="#FEBC2E"/>
  <circle cx="84" cy="38" r="6" fill="#28C840"/>
  <text x="480" y="42" text-anchor="middle" font-family="monospace" font-size="12" fill="#666">Claude Code</text>
  <!-- Code lines -->
  <rect x="50" y="76" width="80" height="10" rx="3" fill="#D97757" opacity="0.5"/>
  <rect x="140" y="76" width="200" height="10" rx="3" fill="#444"/>
  <rect x="50" y="96" width="40" height="10" rx="3" fill="#666"/>
  <rect x="100" y="96" width="300" height="10" rx="3" fill="#333"/>
  <rect x="50" y="116" width="60" height="10" rx="3" fill="#D97757" opacity="0.3"/>
  <rect x="120" y="116" width="250" height="10" rx="3" fill="#444"/>
  <rect x="50" y="136" width="100" height="10" rx="3" fill="#666"/>
  <rect x="160" y="136" width="180" height="10" rx="3" fill="#333"/>
  <rect x="50" y="156" width="40" height="10" rx="3" fill="#D97757" opacity="0.4"/>
  <rect x="100" y="156" width="350" height="10" rx="3" fill="#444"/>
  <rect x="50" y="186" width="860" height="1" fill="#2A2A2A"/>
  <!-- Agent output -->
  <rect x="50" y="206" width="120" height="12" rx="4" fill="#D97757" opacity="0.4"/>
  <rect x="50" y="230" width="600" height="10" rx="3" fill="#333"/>
  <rect x="50" y="250" width="500" height="10" rx="3" fill="#333"/>
  <rect x="50" y="270" width="550" height="10" rx="3" fill="#333"/>
  <!-- Result card -->
  <rect x="50" y="300" width="400" height="160" rx="8" fill="#222"/>
  <rect x="70" y="320" width="160" height="12" rx="4" fill="#D97757" opacity="0.3"/>
  <rect x="70" y="344" width="360" height="8" rx="3" fill="#444"/>
  <rect x="70" y="362" width="300" height="8" rx="3" fill="#444"/>
  <rect x="70" y="380" width="340" height="8" rx="3" fill="#444"/>
  <rect x="70" y="410" width="120" height="30" rx="6" fill="#D97757" opacity="0.2"/>
  <text x="480" y="520" text-anchor="middle" font-family="Inter, sans-serif" font-size="11" fill="#555">Demo de Claude Code con agente activo</text>
</svg>
